<?xml version="1.0" standalone="no"?>
<!DOCTYPE svg PUBLIC "-//W3C//DTD SVG 20010904//EN"
 "http://www.w3.org/TR/2001/REC-SVG-20010904/DTD/svg10.dtd">
<svg version="1.0" xmlns="http://www.w3.org/2000/svg"
 width="128.000000pt" height="128.000000pt" viewBox="0 0 128.000000 128.000000"
 preserveAspectRatio="xMidYMid meet">
<metadata>
Created by potrace 1.14, written by Peter Selinger 2001-2017
</metadata>
<g transform="translate(0.000000,128.000000) scale(0.100000,-0.100000)"
fill="#000000" stroke="none">
<path d="M96 1119 l-96 -160 0 -458 c0 -446 0 -458 20 -479 l21 -22 599 0
c587 0 600 0 620 20 19 19 20 33 20 480 l0 460 -96 160 -96 160 -448 0 -448 0
-96 -161z m931 62 c6 -1 28 -29 47 -63 20 -35 48 -81 61 -103 13 -22 24 -43
25 -47 0 -5 -236 -8 -525 -8 l-524 0 65 107 c35 59 68 110 73 113 7 4 731 5
778 1z m-669 -418 c5 -10 12 -39 15 -65 11 -89 69 -168 155 -208 57 -28 158
-31 215 -6 86 37 167 146 167 224 0 49 16 72 50 72 39 0 54 -29 45 -88 -13
-85 -44 -150 -100 -208 -159 -163 -415 -150 -556 28 -56 71 -93 204 -69 249
14 25 66 26 78 2z"/>
</g>
</svg>
